<mxfile host="Electron" agent="Mozilla/5.0 (Windows NT 10.0; Win64; x64) AppleWebKit/537.36 (KHTML, like Gecko) draw.io/28.1.2 Chrome/138.0.7204.243 Electron/37.4.0 Safari/537.36" version="28.1.2">
  <diagram name="Trang-1" id="GdcDC1PoRH6Ts8C6aH-x">
    <mxGraphModel dx="807" dy="500" grid="1" gridSize="10" guides="1" tooltips="1" connect="1" arrows="1" fold="1" page="1" pageScale="1" pageWidth="827" pageHeight="1169" math="0" shadow="0">
      <root>
        <mxCell id="0" />
        <mxCell id="1" parent="0" />
        <mxCell id="cSk92JlQhgNdSjy1NBCG-1" value="Nhan thong tin san pham" style="rounded=1;whiteSpace=wrap;html=1;arcSize=40;fontColor=#000000;fillColor=#ffffc0;strokeColor=#ff0000;" vertex="1" parent="1">
          <mxGeometry x="282.5" y="25" width="145" height="40" as="geometry" />
        </mxCell>
        <mxCell id="cSk92JlQhgNdSjy1NBCG-2" value="" style="edgeStyle=orthogonalEdgeStyle;html=1;verticalAlign=bottom;endArrow=open;endSize=8;strokeColor=#ff0000;rounded=0;exitX=0.5;exitY=1;exitDx=0;exitDy=0;entryX=0.5;entryY=0;entryDx=0;entryDy=0;" edge="1" parent="1" source="cSk92JlQhgNdSjy1NBCG-1" target="cSk92JlQhgNdSjy1NBCG-3">
          <mxGeometry relative="1" as="geometry">
            <mxPoint x="390" y="310" as="targetPoint" />
            <mxPoint x="280.0000000000001" y="290" as="sourcePoint" />
            <Array as="points" />
          </mxGeometry>
        </mxCell>
        <mxCell id="cSk92JlQhgNdSjy1NBCG-3" value="" style="rhombus;whiteSpace=wrap;html=1;fontColor=#000000;fillColor=#ffffc0;strokeColor=#ff0000;" vertex="1" parent="1">
          <mxGeometry x="333.25" y="100" width="42.5" height="40" as="geometry" />
        </mxCell>
        <mxCell id="cSk92JlQhgNdSjy1NBCG-4" value="" style="edgeStyle=orthogonalEdgeStyle;html=1;verticalAlign=bottom;endArrow=open;endSize=8;strokeColor=#ff0000;rounded=0;exitX=0.5;exitY=1;exitDx=0;exitDy=0;entryX=0.5;entryY=0;entryDx=0;entryDy=0;" edge="1" parent="1" source="cSk92JlQhgNdSjy1NBCG-3" target="cSk92JlQhgNdSjy1NBCG-23">
          <mxGeometry relative="1" as="geometry">
            <mxPoint x="279.65999999999997" y="430" as="targetPoint" />
            <mxPoint x="279.65999999999997" y="370" as="sourcePoint" />
          </mxGeometry>
        </mxCell>
        <mxCell id="cSk92JlQhgNdSjy1NBCG-5" value="Cap nhat lai so luong" style="rounded=1;whiteSpace=wrap;html=1;arcSize=40;fontColor=#000000;fillColor=#ffffc0;strokeColor=#ff0000;" vertex="1" parent="1">
          <mxGeometry x="294" y="390" width="120" height="40" as="geometry" />
        </mxCell>
        <mxCell id="cSk92JlQhgNdSjy1NBCG-6" value="" style="ellipse;html=1;shape=endState;fillColor=#000000;strokeColor=#ff0000;" vertex="1" parent="1">
          <mxGeometry x="339" y="480" width="30" height="30" as="geometry" />
        </mxCell>
        <mxCell id="cSk92JlQhgNdSjy1NBCG-7" value="" style="edgeStyle=orthogonalEdgeStyle;html=1;verticalAlign=bottom;endArrow=open;endSize=8;strokeColor=#ff0000;rounded=0;exitX=0.5;exitY=1;exitDx=0;exitDy=0;entryX=0.5;entryY=0;entryDx=0;entryDy=0;" edge="1" parent="1" source="cSk92JlQhgNdSjy1NBCG-5" target="cSk92JlQhgNdSjy1NBCG-6">
          <mxGeometry relative="1" as="geometry">
            <mxPoint x="344" y="470" as="targetPoint" />
            <mxPoint x="344" y="390" as="sourcePoint" />
          </mxGeometry>
        </mxCell>
        <mxCell id="cSk92JlQhgNdSjy1NBCG-8" value="" style="ellipse;html=1;shape=startState;fillColor=#000000;strokeColor=#ff0000;" vertex="1" parent="1">
          <mxGeometry x="70" y="30" width="30" height="30" as="geometry" />
        </mxCell>
        <mxCell id="cSk92JlQhgNdSjy1NBCG-9" value="" style="edgeStyle=orthogonalEdgeStyle;html=1;verticalAlign=bottom;endArrow=open;endSize=8;strokeColor=#ff0000;rounded=0;entryX=0;entryY=0.5;entryDx=0;entryDy=0;" edge="1" source="cSk92JlQhgNdSjy1NBCG-8" parent="1" target="cSk92JlQhgNdSjy1NBCG-10">
          <mxGeometry relative="1" as="geometry">
            <mxPoint x="135" y="160" as="targetPoint" />
          </mxGeometry>
        </mxCell>
        <mxCell id="cSk92JlQhgNdSjy1NBCG-10" value="Nhan tien" style="rounded=1;whiteSpace=wrap;html=1;arcSize=40;fontColor=#000000;fillColor=#ffffc0;strokeColor=#ff0000;" vertex="1" parent="1">
          <mxGeometry x="140" y="25" width="70" height="40" as="geometry" />
        </mxCell>
        <mxCell id="cSk92JlQhgNdSjy1NBCG-11" value="" style="edgeStyle=orthogonalEdgeStyle;html=1;verticalAlign=bottom;endArrow=open;endSize=8;strokeColor=#ff0000;rounded=0;exitX=1;exitY=0.5;exitDx=0;exitDy=0;entryX=0;entryY=0.5;entryDx=0;entryDy=0;" edge="1" parent="1" source="cSk92JlQhgNdSjy1NBCG-10" target="cSk92JlQhgNdSjy1NBCG-1">
          <mxGeometry relative="1" as="geometry">
            <mxPoint x="400" y="280" as="targetPoint" />
            <mxPoint x="400.0000000000001" y="210" as="sourcePoint" />
            <Array as="points">
              <mxPoint x="290" y="45" />
              <mxPoint x="290" y="45" />
            </Array>
          </mxGeometry>
        </mxCell>
        <mxCell id="cSk92JlQhgNdSjy1NBCG-12" value="Thong bao khong du tien" style="rounded=1;whiteSpace=wrap;html=1;arcSize=40;fontColor=#000000;fillColor=#ffffc0;strokeColor=#ff0000;" vertex="1" parent="1">
          <mxGeometry x="110" y="160" width="140" height="40" as="geometry" />
        </mxCell>
        <mxCell id="cSk92JlQhgNdSjy1NBCG-13" value="" style="edgeStyle=orthogonalEdgeStyle;html=1;verticalAlign=bottom;endArrow=open;endSize=8;strokeColor=#ff0000;rounded=0;exitX=0.5;exitY=1;exitDx=0;exitDy=0;entryX=0.5;entryY=0;entryDx=0;entryDy=0;" edge="1" parent="1" source="cSk92JlQhgNdSjy1NBCG-12" target="cSk92JlQhgNdSjy1NBCG-20">
          <mxGeometry relative="1" as="geometry">
            <mxPoint x="180" y="250" as="targetPoint" />
            <mxPoint x="190" y="160" as="sourcePoint" />
          </mxGeometry>
        </mxCell>
        <mxCell id="cSk92JlQhgNdSjy1NBCG-14" value="Tinh so tien du" style="rounded=1;whiteSpace=wrap;html=1;arcSize=40;fontColor=#000000;fillColor=#ffffc0;strokeColor=#ff0000;" vertex="1" parent="1">
          <mxGeometry x="460" y="160" width="120" height="40" as="geometry" />
        </mxCell>
        <mxCell id="cSk92JlQhgNdSjy1NBCG-15" value="" style="edgeStyle=orthogonalEdgeStyle;html=1;verticalAlign=bottom;endArrow=open;endSize=8;strokeColor=#ff0000;rounded=0;exitX=0.5;exitY=1;exitDx=0;exitDy=0;entryX=1;entryY=0.5;entryDx=0;entryDy=0;" edge="1" parent="1" source="cSk92JlQhgNdSjy1NBCG-14" target="cSk92JlQhgNdSjy1NBCG-26">
          <mxGeometry relative="1" as="geometry">
            <mxPoint x="580" y="270" as="targetPoint" />
            <mxPoint x="570" y="180" as="sourcePoint" />
            <Array as="points">
              <mxPoint x="520" y="260" />
            </Array>
          </mxGeometry>
        </mxCell>
        <mxCell id="cSk92JlQhgNdSjy1NBCG-16" value="Liet ke cac san pham goi y" style="rounded=1;whiteSpace=wrap;html=1;arcSize=40;fontColor=#000000;fillColor=#ffffc0;strokeColor=#ff0000;" vertex="1" parent="1">
          <mxGeometry x="445" y="390" width="150" height="40" as="geometry" />
        </mxCell>
        <mxCell id="cSk92JlQhgNdSjy1NBCG-17" value="" style="edgeStyle=orthogonalEdgeStyle;html=1;verticalAlign=bottom;endArrow=open;endSize=8;strokeColor=#ff0000;rounded=0;exitX=0.5;exitY=1;exitDx=0;exitDy=0;entryX=0.5;entryY=0;entryDx=0;entryDy=0;" edge="1" parent="1" source="cSk92JlQhgNdSjy1NBCG-16" target="cSk92JlQhgNdSjy1NBCG-35">
          <mxGeometry relative="1" as="geometry">
            <mxPoint x="510" y="480" as="targetPoint" />
            <mxPoint x="500" y="390" as="sourcePoint" />
            <Array as="points">
              <mxPoint x="520" y="450" />
              <mxPoint x="520" y="450" />
            </Array>
          </mxGeometry>
        </mxCell>
        <mxCell id="cSk92JlQhgNdSjy1NBCG-18" value="Thong bao &quot;SOLD OUT&quot;" style="rounded=1;whiteSpace=wrap;html=1;arcSize=40;fontColor=#000000;fillColor=#ffffc0;strokeColor=#ff0000;" vertex="1" parent="1">
          <mxGeometry x="450" y="310" width="140" height="40" as="geometry" />
        </mxCell>
        <mxCell id="cSk92JlQhgNdSjy1NBCG-19" value="" style="edgeStyle=orthogonalEdgeStyle;html=1;verticalAlign=bottom;endArrow=open;endSize=8;strokeColor=#ff0000;rounded=0;exitX=0.5;exitY=1;exitDx=0;exitDy=0;entryX=0.5;entryY=0;entryDx=0;entryDy=0;" edge="1" parent="1" source="cSk92JlQhgNdSjy1NBCG-18" target="cSk92JlQhgNdSjy1NBCG-16">
          <mxGeometry relative="1" as="geometry">
            <mxPoint x="430" y="365" as="targetPoint" />
            <mxPoint x="170" y="370" as="sourcePoint" />
            <Array as="points">
              <mxPoint x="520" y="370" />
              <mxPoint x="520" y="370" />
            </Array>
          </mxGeometry>
        </mxCell>
        <mxCell id="cSk92JlQhgNdSjy1NBCG-20" value="" style="rhombus;whiteSpace=wrap;html=1;fontColor=#000000;fillColor=#ffffc0;strokeColor=#ff0000;" vertex="1" parent="1">
          <mxGeometry x="160" y="230" width="40" height="40" as="geometry" />
        </mxCell>
        <mxCell id="cSk92JlQhgNdSjy1NBCG-21" value="[nap them tien]" style="edgeStyle=orthogonalEdgeStyle;html=1;align=left;verticalAlign=bottom;endArrow=open;endSize=8;strokeColor=#ff0000;rounded=0;entryX=0;entryY=0.5;entryDx=0;entryDy=0;" edge="1" source="cSk92JlQhgNdSjy1NBCG-20" parent="1" target="cSk92JlQhgNdSjy1NBCG-3">
          <mxGeometry x="0.1868" relative="1" as="geometry">
            <mxPoint x="310" y="280" as="targetPoint" />
            <Array as="points">
              <mxPoint x="80" y="250" />
              <mxPoint x="80" y="120" />
            </Array>
            <mxPoint as="offset" />
          </mxGeometry>
        </mxCell>
        <mxCell id="cSk92JlQhgNdSjy1NBCG-22" value="[Lay lai tien]" style="edgeStyle=orthogonalEdgeStyle;html=1;align=left;verticalAlign=top;endArrow=open;endSize=8;strokeColor=#ff0000;rounded=0;entryX=0;entryY=0.5;entryDx=0;entryDy=0;" edge="1" source="cSk92JlQhgNdSjy1NBCG-20" parent="1" target="cSk92JlQhgNdSjy1NBCG-6">
          <mxGeometry x="-0.7395" relative="1" as="geometry">
            <mxPoint x="170" y="360" as="targetPoint" />
            <Array as="points">
              <mxPoint x="180" y="495" />
            </Array>
            <mxPoint as="offset" />
          </mxGeometry>
        </mxCell>
        <mxCell id="cSk92JlQhgNdSjy1NBCG-23" value="" style="rhombus;whiteSpace=wrap;html=1;fontColor=#000000;fillColor=#ffffc0;strokeColor=#ff0000;" vertex="1" parent="1">
          <mxGeometry x="333.75" y="160" width="42.5" height="40" as="geometry" />
        </mxCell>
        <mxCell id="cSk92JlQhgNdSjy1NBCG-24" value="[input&amp;gt;price]" style="edgeStyle=orthogonalEdgeStyle;html=1;align=left;verticalAlign=bottom;endArrow=open;endSize=8;strokeColor=#ff0000;rounded=0;entryX=0;entryY=0.5;entryDx=0;entryDy=0;" edge="1" source="cSk92JlQhgNdSjy1NBCG-23" parent="1" target="cSk92JlQhgNdSjy1NBCG-14">
          <mxGeometry x="-1" y="11" relative="1" as="geometry">
            <mxPoint x="480" y="150" as="targetPoint" />
            <mxPoint x="-5" y="1" as="offset" />
          </mxGeometry>
        </mxCell>
        <mxCell id="cSk92JlQhgNdSjy1NBCG-25" value="[else]" style="edgeStyle=orthogonalEdgeStyle;html=1;align=left;verticalAlign=top;endArrow=open;endSize=8;strokeColor=#ff0000;rounded=0;entryX=1;entryY=0.5;entryDx=0;entryDy=0;" edge="1" source="cSk92JlQhgNdSjy1NBCG-23" parent="1" target="cSk92JlQhgNdSjy1NBCG-12">
          <mxGeometry x="0.2" y="-30" relative="1" as="geometry">
            <mxPoint x="455" y="220" as="targetPoint" />
            <mxPoint as="offset" />
          </mxGeometry>
        </mxCell>
        <mxCell id="cSk92JlQhgNdSjy1NBCG-26" value="" style="rhombus;whiteSpace=wrap;html=1;fontColor=#000000;fillColor=#ffffc0;strokeColor=#ff0000;" vertex="1" parent="1">
          <mxGeometry x="334.25" y="240" width="41.5" height="40" as="geometry" />
        </mxCell>
        <mxCell id="cSk92JlQhgNdSjy1NBCG-28" value="" style="edgeStyle=orthogonalEdgeStyle;html=1;align=left;verticalAlign=top;endArrow=open;endSize=8;strokeColor=#ff0000;rounded=0;" edge="1" source="cSk92JlQhgNdSjy1NBCG-26" parent="1" target="cSk92JlQhgNdSjy1NBCG-29">
          <mxGeometry x="-0.3143" y="15" relative="1" as="geometry">
            <mxPoint x="320" y="340" as="targetPoint" />
            <mxPoint as="offset" />
          </mxGeometry>
        </mxCell>
        <mxCell id="cSk92JlQhgNdSjy1NBCG-29" value="" style="rhombus;whiteSpace=wrap;html=1;fontColor=#000000;fillColor=#ffffc0;strokeColor=#ff0000;" vertex="1" parent="1">
          <mxGeometry x="334" y="310" width="42" height="40" as="geometry" />
        </mxCell>
        <mxCell id="cSk92JlQhgNdSjy1NBCG-30" value="[else]" style="edgeStyle=orthogonalEdgeStyle;html=1;align=left;verticalAlign=bottom;endArrow=open;endSize=8;strokeColor=#ff0000;rounded=0;entryX=0;entryY=0.5;entryDx=0;entryDy=0;" edge="1" source="cSk92JlQhgNdSjy1NBCG-29" parent="1" target="cSk92JlQhgNdSjy1NBCG-18">
          <mxGeometry x="-0.5385" relative="1" as="geometry">
            <mxPoint x="560" y="330" as="targetPoint" />
            <mxPoint as="offset" />
          </mxGeometry>
        </mxCell>
        <mxCell id="cSk92JlQhgNdSjy1NBCG-31" value="[Du so luong]" style="edgeStyle=orthogonalEdgeStyle;html=1;align=left;verticalAlign=top;endArrow=open;endSize=8;strokeColor=#ff0000;rounded=0;entryX=0.5;entryY=0;entryDx=0;entryDy=0;" edge="1" source="cSk92JlQhgNdSjy1NBCG-29" parent="1" target="cSk92JlQhgNdSjy1NBCG-5">
          <mxGeometry x="-1" relative="1" as="geometry">
            <mxPoint x="420" y="410" as="targetPoint" />
            <Array as="points">
              <mxPoint x="354" y="350" />
              <mxPoint x="354" y="350" />
            </Array>
            <mxPoint as="offset" />
          </mxGeometry>
        </mxCell>
        <mxCell id="cSk92JlQhgNdSjy1NBCG-32" value="" style="edgeStyle=orthogonalEdgeStyle;html=1;verticalAlign=bottom;endArrow=open;endSize=8;strokeColor=#ff0000;rounded=0;exitX=0.5;exitY=1;exitDx=0;exitDy=0;entryX=0.5;entryY=0;entryDx=0;entryDy=0;" edge="1" parent="1" source="cSk92JlQhgNdSjy1NBCG-23" target="cSk92JlQhgNdSjy1NBCG-26">
          <mxGeometry relative="1" as="geometry">
            <mxPoint x="270" y="255" as="targetPoint" />
            <mxPoint x="271" y="220" as="sourcePoint" />
            <Array as="points" />
          </mxGeometry>
        </mxCell>
        <mxCell id="cSk92JlQhgNdSjy1NBCG-34" value="[input=price]" style="edgeLabel;html=1;align=center;verticalAlign=middle;resizable=0;points=[];" vertex="1" connectable="0" parent="cSk92JlQhgNdSjy1NBCG-32">
          <mxGeometry x="-0.3143" y="2" relative="1" as="geometry">
            <mxPoint x="-37" as="offset" />
          </mxGeometry>
        </mxCell>
        <mxCell id="cSk92JlQhgNdSjy1NBCG-35" value="" style="rhombus;whiteSpace=wrap;html=1;fontColor=#000000;fillColor=#ffffc0;strokeColor=#ff0000;" vertex="1" parent="1">
          <mxGeometry x="500" y="475" width="40" height="40" as="geometry" />
        </mxCell>
        <mxCell id="cSk92JlQhgNdSjy1NBCG-36" value="[Chon san pham khac]" style="edgeStyle=orthogonalEdgeStyle;html=1;align=left;verticalAlign=bottom;endArrow=open;endSize=8;strokeColor=#ff0000;rounded=0;entryX=1;entryY=0.5;entryDx=0;entryDy=0;" edge="1" source="cSk92JlQhgNdSjy1NBCG-35" parent="1" target="cSk92JlQhgNdSjy1NBCG-3">
          <mxGeometry x="0.8548" relative="1" as="geometry">
            <mxPoint x="670" y="500" as="targetPoint" />
            <Array as="points">
              <mxPoint x="610" y="495" />
              <mxPoint x="610" y="120" />
            </Array>
            <mxPoint as="offset" />
          </mxGeometry>
        </mxCell>
        <mxCell id="cSk92JlQhgNdSjy1NBCG-37" value="[Lay lai tien]" style="edgeStyle=orthogonalEdgeStyle;html=1;align=left;verticalAlign=top;endArrow=open;endSize=8;strokeColor=#ff0000;rounded=0;entryX=1;entryY=0.5;entryDx=0;entryDy=0;" edge="1" source="cSk92JlQhgNdSjy1NBCG-35" parent="1" target="cSk92JlQhgNdSjy1NBCG-6">
          <mxGeometry x="0.4414" relative="1" as="geometry">
            <mxPoint x="530" y="580" as="targetPoint" />
            <mxPoint as="offset" />
          </mxGeometry>
        </mxCell>
        <mxCell id="cSk92JlQhgNdSjy1NBCG-47" style="edgeStyle=orthogonalEdgeStyle;rounded=0;orthogonalLoop=1;jettySize=auto;html=1;exitX=0.5;exitY=1;exitDx=0;exitDy=0;dashed=1;endArrow=none;endFill=0;" edge="1" parent="1" source="cSk92JlQhgNdSjy1NBCG-38">
          <mxGeometry relative="1" as="geometry">
            <mxPoint x="468.41176470588243" y="1170" as="targetPoint" />
          </mxGeometry>
        </mxCell>
        <mxCell id="cSk92JlQhgNdSjy1NBCG-38" value="Register" style="html=1;whiteSpace=wrap;" vertex="1" parent="1">
          <mxGeometry x="413.5" y="620" width="110" height="50" as="geometry" />
        </mxCell>
        <mxCell id="cSk92JlQhgNdSjy1NBCG-48" style="edgeStyle=orthogonalEdgeStyle;rounded=0;orthogonalLoop=1;jettySize=auto;html=1;exitX=0.5;exitY=1;exitDx=0;exitDy=0;dashed=1;endArrow=none;endFill=0;" edge="1" parent="1" source="cSk92JlQhgNdSjy1NBCG-39">
          <mxGeometry relative="1" as="geometry">
            <mxPoint x="664.8823529411766" y="1170" as="targetPoint" />
          </mxGeometry>
        </mxCell>
        <mxCell id="cSk92JlQhgNdSjy1NBCG-39" value="Database" style="html=1;whiteSpace=wrap;" vertex="1" parent="1">
          <mxGeometry x="610" y="620" width="110" height="50" as="geometry" />
        </mxCell>
        <mxCell id="cSk92JlQhgNdSjy1NBCG-45" style="edgeStyle=orthogonalEdgeStyle;rounded=0;orthogonalLoop=1;jettySize=auto;html=1;endArrow=none;endFill=0;dashed=1;" edge="1" parent="1">
          <mxGeometry relative="1" as="geometry">
            <mxPoint x="265.3103448275863" y="1170" as="targetPoint" />
            <mxPoint x="260" y="890" as="sourcePoint" />
            <Array as="points">
              <mxPoint x="260" y="891" />
              <mxPoint x="265" y="891" />
              <mxPoint x="265" y="1031" />
            </Array>
          </mxGeometry>
        </mxCell>
        <mxCell id="cSk92JlQhgNdSjy1NBCG-40" value="Man hinh" style="html=1;whiteSpace=wrap;" vertex="1" parent="1">
          <mxGeometry x="210" y="620" width="110" height="50" as="geometry" />
        </mxCell>
        <mxCell id="cSk92JlQhgNdSjy1NBCG-44" style="edgeStyle=orthogonalEdgeStyle;rounded=0;orthogonalLoop=1;jettySize=auto;html=1;dashed=1;endArrow=none;endFill=0;" edge="1" parent="1">
          <mxGeometry relative="1" as="geometry">
            <mxPoint x="105.31034482758628" y="1190" as="targetPoint" />
            <mxPoint x="105" y="700" as="sourcePoint" />
          </mxGeometry>
        </mxCell>
        <mxCell id="cSk92JlQhgNdSjy1NBCG-41" value="Object1" style="shape=umlActor;verticalLabelPosition=bottom;verticalAlign=top;html=1;" vertex="1" parent="1">
          <mxGeometry x="90" y="610" width="30" height="60" as="geometry" />
        </mxCell>
        <mxCell id="cSk92JlQhgNdSjy1NBCG-42" value="" style="html=1;points=[[0,0,0,0,5],[0,1,0,0,-5],[1,0,0,0,5],[1,1,0,0,-5]];perimeter=orthogonalPerimeter;outlineConnect=0;targetShapes=umlLifeline;portConstraint=eastwest;newEdgeStyle={&quot;curved&quot;:0,&quot;rounded&quot;:0};" vertex="1" parent="1">
          <mxGeometry x="260" y="740" width="10" height="80" as="geometry" />
        </mxCell>
        <mxCell id="cSk92JlQhgNdSjy1NBCG-43" value="Insert (Input)" style="html=1;verticalAlign=bottom;startArrow=oval;endArrow=block;startSize=8;curved=0;rounded=0;entryX=0;entryY=0;entryDx=0;entryDy=5;" edge="1" target="cSk92JlQhgNdSjy1NBCG-42" parent="1">
          <mxGeometry x="0.125" y="5" relative="1" as="geometry">
            <mxPoint x="100" y="745" as="sourcePoint" />
            <mxPoint as="offset" />
          </mxGeometry>
        </mxCell>
        <mxCell id="cSk92JlQhgNdSjy1NBCG-49" value="Select(selection)" style="html=1;verticalAlign=bottom;startArrow=oval;startFill=1;endArrow=block;startSize=8;curved=0;rounded=0;" edge="1" parent="1" target="cSk92JlQhgNdSjy1NBCG-42">
          <mxGeometry x="-0.125" width="60" relative="1" as="geometry">
            <mxPoint x="100" y="780" as="sourcePoint" />
            <mxPoint x="210" y="790" as="targetPoint" />
            <mxPoint as="offset" />
          </mxGeometry>
        </mxCell>
        <mxCell id="cSk92JlQhgNdSjy1NBCG-50" value="" style="html=1;points=[[0,0,0,0,5],[0,1,0,0,-5],[1,0,0,0,5],[1,1,0,0,-5]];perimeter=orthogonalPerimeter;outlineConnect=0;targetShapes=umlLifeline;portConstraint=eastwest;newEdgeStyle={&quot;curved&quot;:0,&quot;rounded&quot;:0};" vertex="1" parent="1">
          <mxGeometry x="464" y="820" width="10" height="90" as="geometry" />
        </mxCell>
        <mxCell id="cSk92JlQhgNdSjy1NBCG-51" value="dispatch" style="html=1;verticalAlign=bottom;startArrow=oval;endArrow=block;startSize=8;curved=0;rounded=0;entryX=0;entryY=0;entryDx=0;entryDy=5;exitX=1;exitY=1;exitDx=0;exitDy=-5;exitPerimeter=0;" edge="1" target="cSk92JlQhgNdSjy1NBCG-50" parent="1" source="cSk92JlQhgNdSjy1NBCG-42">
          <mxGeometry relative="1" as="geometry">
            <mxPoint x="394" y="825" as="sourcePoint" />
          </mxGeometry>
        </mxCell>
        <mxCell id="cSk92JlQhgNdSjy1NBCG-52" value="" style="html=1;points=[[0,0,0,0,5],[0,1,0,0,-5],[1,0,0,0,5],[1,1,0,0,-5]];perimeter=orthogonalPerimeter;outlineConnect=0;targetShapes=umlLifeline;portConstraint=eastwest;newEdgeStyle={&quot;curved&quot;:0,&quot;rounded&quot;:0};" vertex="1" parent="1">
          <mxGeometry x="660" y="840" width="10" height="40" as="geometry" />
        </mxCell>
        <mxCell id="cSk92JlQhgNdSjy1NBCG-53" value="Get(selection)" style="html=1;verticalAlign=bottom;endArrow=block;curved=0;rounded=0;entryX=0;entryY=0;entryDx=0;entryDy=5;" edge="1" target="cSk92JlQhgNdSjy1NBCG-52" parent="1" source="cSk92JlQhgNdSjy1NBCG-50">
          <mxGeometry relative="1" as="geometry">
            <mxPoint x="590" y="845" as="sourcePoint" />
          </mxGeometry>
        </mxCell>
        <mxCell id="cSk92JlQhgNdSjy1NBCG-54" value="price:" style="html=1;verticalAlign=bottom;endArrow=open;dashed=1;endSize=8;curved=0;rounded=0;exitX=0;exitY=1;exitDx=0;exitDy=-5;" edge="1" source="cSk92JlQhgNdSjy1NBCG-52" parent="1" target="cSk92JlQhgNdSjy1NBCG-50">
          <mxGeometry relative="1" as="geometry">
            <mxPoint x="590" y="915" as="targetPoint" />
          </mxGeometry>
        </mxCell>
        <mxCell id="cSk92JlQhgNdSjy1NBCG-55" value="" style="html=1;points=[[0,0,0,0,5],[0,1,0,0,-5],[1,0,0,0,5],[1,1,0,0,-5]];perimeter=orthogonalPerimeter;outlineConnect=0;targetShapes=umlLifeline;portConstraint=eastwest;newEdgeStyle={&quot;curved&quot;:0,&quot;rounded&quot;:0};" vertex="1" parent="1">
          <mxGeometry x="660" y="910" width="10" height="130" as="geometry" />
        </mxCell>
        <mxCell id="cSk92JlQhgNdSjy1NBCG-56" value="[input&amp;gt;=price]:Check(Selection)" style="html=1;verticalAlign=bottom;endArrow=block;curved=0;rounded=0;entryX=0;entryY=0;entryDx=0;entryDy=5;exitX=1;exitY=1;exitDx=0;exitDy=-5;exitPerimeter=0;" edge="1" target="cSk92JlQhgNdSjy1NBCG-55" parent="1" source="cSk92JlQhgNdSjy1NBCG-50">
          <mxGeometry x="-0.0003" relative="1" as="geometry">
            <mxPoint x="480" y="910" as="sourcePoint" />
            <mxPoint as="offset" />
          </mxGeometry>
        </mxCell>
        <mxCell id="cSk92JlQhgNdSjy1NBCG-57" value="[so luong khong du]: SoldOut(list)" style="html=1;verticalAlign=bottom;endArrow=none;endSize=8;curved=0;rounded=0;entryX=1;entryY=0;entryDx=0;entryDy=5;entryPerimeter=0;endFill=0;" edge="1" source="cSk92JlQhgNdSjy1NBCG-55" parent="1" target="cSk92JlQhgNdSjy1NBCG-68">
          <mxGeometry relative="1" as="geometry">
            <mxPoint x="590" y="964.66" as="targetPoint" />
            <mxPoint x="659.9999999999998" y="964.66" as="sourcePoint" />
          </mxGeometry>
        </mxCell>
        <mxCell id="cSk92JlQhgNdSjy1NBCG-58" value="" style="html=1;points=[[0,0,0,0,5],[0,1,0,0,-5],[1,0,0,0,5],[1,1,0,0,-5]];perimeter=orthogonalPerimeter;outlineConnect=0;targetShapes=umlLifeline;portConstraint=eastwest;newEdgeStyle={&quot;curved&quot;:0,&quot;rounded&quot;:0};" vertex="1" parent="1">
          <mxGeometry x="670" y="980" width="10" height="20" as="geometry" />
        </mxCell>
        <mxCell id="cSk92JlQhgNdSjy1NBCG-59" value="[Du so luong]: Update()" style="html=1;align=left;spacingLeft=2;endArrow=block;rounded=0;edgeStyle=orthogonalEdgeStyle;curved=0;rounded=0;" edge="1" target="cSk92JlQhgNdSjy1NBCG-58" parent="1" source="cSk92JlQhgNdSjy1NBCG-55">
          <mxGeometry relative="1" as="geometry">
            <mxPoint x="675" y="960" as="sourcePoint" />
            <Array as="points">
              <mxPoint x="700" y="950" />
              <mxPoint x="700" y="990" />
            </Array>
          </mxGeometry>
        </mxCell>
        <mxCell id="cSk92JlQhgNdSjy1NBCG-67" value="" style="edgeStyle=orthogonalEdgeStyle;rounded=0;orthogonalLoop=1;jettySize=auto;html=1;exitX=0.5;exitY=1;exitDx=0;exitDy=0;endArrow=none;endFill=0;dashed=1;" edge="1" parent="1" source="cSk92JlQhgNdSjy1NBCG-40">
          <mxGeometry relative="1" as="geometry">
            <mxPoint x="265" y="1010" as="targetPoint" />
            <mxPoint x="265" y="670" as="sourcePoint" />
            <Array as="points">
              <mxPoint x="265" y="890" />
              <mxPoint x="200" y="890" />
              <mxPoint x="200" y="1010" />
              <mxPoint x="265" y="1010" />
            </Array>
          </mxGeometry>
        </mxCell>
        <mxCell id="cSk92JlQhgNdSjy1NBCG-79" value="[rut tien]: Withdraw()" style="edgeStyle=orthogonalEdgeStyle;rounded=0;orthogonalLoop=1;jettySize=auto;html=1;exitX=1;exitY=1;exitDx=0;exitDy=-5;exitPerimeter=0;curved=1;" edge="1" parent="1" source="cSk92JlQhgNdSjy1NBCG-68">
          <mxGeometry x="-0.0516" y="60" relative="1" as="geometry">
            <mxPoint x="270.1379310344828" y="1040" as="targetPoint" />
            <Array as="points">
              <mxPoint x="290" y="985" />
              <mxPoint x="290" y="1040" />
            </Array>
            <mxPoint as="offset" />
          </mxGeometry>
        </mxCell>
        <mxCell id="cSk92JlQhgNdSjy1NBCG-68" value="" style="html=1;points=[[0,0,0,0,5],[0,1,0,0,-5],[1,0,0,0,5],[1,1,0,0,-5]];perimeter=orthogonalPerimeter;outlineConnect=0;targetShapes=umlLifeline;portConstraint=eastwest;newEdgeStyle={&quot;curved&quot;:0,&quot;rounded&quot;:0};" vertex="1" parent="1">
          <mxGeometry x="260" y="940" width="10" height="50" as="geometry" />
        </mxCell>
        <mxCell id="cSk92JlQhgNdSjy1NBCG-73" value="" style="html=1;points=[[0,0,0,0,5],[0,1,0,0,-5],[1,0,0,0,5],[1,1,0,0,-5]];perimeter=orthogonalPerimeter;outlineConnect=0;targetShapes=umlLifeline;portConstraint=eastwest;newEdgeStyle={&quot;curved&quot;:0,&quot;rounded&quot;:0};" vertex="1" parent="1">
          <mxGeometry x="200" y="910" width="10" height="80" as="geometry" />
        </mxCell>
        <mxCell id="cSk92JlQhgNdSjy1NBCG-75" value="[input&amp;lt;price]:Thongbao()" style="html=1;verticalAlign=bottom;endArrow=classic;endSize=8;curved=0;rounded=0;exitX=0;exitY=1;exitDx=0;exitDy=-5;exitPerimeter=0;entryX=1;entryY=0;entryDx=0;entryDy=5;entryPerimeter=0;endFill=1;" edge="1" source="cSk92JlQhgNdSjy1NBCG-50" parent="1" target="cSk92JlQhgNdSjy1NBCG-73">
          <mxGeometry relative="1" as="geometry">
            <mxPoint x="319" y="910" as="targetPoint" />
            <mxPoint x="389" y="910" as="sourcePoint" />
          </mxGeometry>
        </mxCell>
        <mxCell id="cSk92JlQhgNdSjy1NBCG-76" value="" style="html=1;points=[[0,0,0,0,5],[0,1,0,0,-5],[1,0,0,0,5],[1,1,0,0,-5]];perimeter=orthogonalPerimeter;outlineConnect=0;targetShapes=umlLifeline;portConstraint=eastwest;newEdgeStyle={&quot;curved&quot;:0,&quot;rounded&quot;:0};" vertex="1" parent="1">
          <mxGeometry x="260" y="1040" width="10" height="60" as="geometry" />
        </mxCell>
        <mxCell id="cSk92JlQhgNdSjy1NBCG-77" value="callback" style="html=1;verticalAlign=bottom;endArrow=block;curved=0;rounded=0;entryX=1;entryY=0;entryDx=0;entryDy=5;exitX=0;exitY=1;exitDx=0;exitDy=-5;exitPerimeter=0;" edge="1" target="cSk92JlQhgNdSjy1NBCG-76" parent="1" source="cSk92JlQhgNdSjy1NBCG-55">
          <mxGeometry relative="1" as="geometry">
            <mxPoint x="340" y="1045" as="sourcePoint" />
          </mxGeometry>
        </mxCell>
        <mxCell id="cSk92JlQhgNdSjy1NBCG-80" value="&#xa;&lt;span style=&quot;color: rgb(0, 0, 0); font-family: Helvetica; font-size: 11px; font-style: normal; font-variant-ligatures: normal; font-variant-caps: normal; font-weight: 400; letter-spacing: normal; orphans: 2; text-align: center; text-indent: 0px; text-transform: none; widows: 2; word-spacing: 0px; -webkit-text-stroke-width: 0px; white-space: nowrap; background-color: rgb(255, 255, 255); text-decoration-thickness: initial; text-decoration-style: initial; text-decoration-color: initial; display: inline !important; float: none;&quot;&gt;[rut tien]: Withdraw()&lt;/span&gt;&#xa;&#xa;" style="edgeStyle=orthogonalEdgeStyle;rounded=0;orthogonalLoop=1;jettySize=auto;html=1;curved=1;exitX=0;exitY=1;exitDx=0;exitDy=-5;exitPerimeter=0;entryX=0;entryY=0;entryDx=0;entryDy=5;entryPerimeter=0;" edge="1" parent="1" source="cSk92JlQhgNdSjy1NBCG-73" target="cSk92JlQhgNdSjy1NBCG-76">
          <mxGeometry y="-25" relative="1" as="geometry">
            <mxPoint as="offset" />
          </mxGeometry>
        </mxCell>
        <mxCell id="cSk92JlQhgNdSjy1NBCG-82" value="" style="shape=mxgraph.sysml.x;" vertex="1" parent="1">
          <mxGeometry x="260" y="1090" width="15" height="10" as="geometry" />
        </mxCell>
      </root>
    </mxGraphModel>
  </diagram>
</mxfile>
